<svg xmlns="http://www.w3.org/2000/svg" width="30" height="22"><path fill="#00accd" d="M7.68 22a6.23 6.23 0 01-5.2-2.64 10.58 10.58 0 01-2-6.56q0-5.76 3.44-9T13.36.52v4.64A7.41 7.41 0 008.08 7a5.7 5.7 0 00-1.76 4.16 5 5 0 00.08 1A4.21 4.21 0 019 11.4a4.6 4.6 0 013.4 1.32 5.15 5.15 0 011.32 3.8 5.07 5.07 0 01-1.68 3.88A6.21 6.21 0 017.68 22zM23 22a6.23 6.23 0 01-5.2-2.64 10.58 10.58 0 01-2-6.56q0-5.76 3.44-9T28.72.52v4.64A7.41 7.41 0 0023.44 7a5.7 5.7 0 00-1.76 4.16 5 5 0 00.08 1 4.21 4.21 0 012.64-.8 4.6 4.6 0 013.4 1.32 5.15 5.15 0 011.32 3.8 5.07 5.07 0 01-1.68 3.88A6.21 6.21 0 0123 22z"/></svg>